<svg width="32" height="32" viewBox="0 0 32 32" fill="none" xmlns="http://www.w3.org/2000/svg">
<path d="M17.6799 3.99977C10.8932 3.8131 5.33321 9.26644 5.33321 15.9998H2.94654C2.34654 15.9998 2.05321 16.7198 2.47988 17.1331L6.19988 20.8664C6.46654 21.1331 6.87988 21.1331 7.14654 20.8664L10.8665 17.1331C10.9587 17.0391 11.0209 16.9199 11.0455 16.7906C11.07 16.6613 11.0557 16.5276 11.0043 16.4064C10.953 16.2852 10.8669 16.1819 10.757 16.1096C10.6471 16.0372 10.5182 15.999 10.3865 15.9998H7.99988C7.99988 10.7998 12.2399 6.59977 17.4665 6.66644C22.4265 6.7331 26.5999 10.9064 26.6665 15.8664C26.7332 21.0798 22.5332 25.3331 17.3332 25.3331C15.1865 25.3331 13.1999 24.5998 11.6265 23.3598C11.3712 23.1586 11.0507 23.0583 10.7262 23.078C10.4017 23.0976 10.0958 23.2359 9.86654 23.4664C9.30654 24.0264 9.34654 24.9731 9.97321 25.4531C12.068 27.1097 14.6625 28.0074 17.3332 27.9998C24.0665 27.9998 29.5199 22.4398 29.3332 15.6531C29.1599 9.39977 23.9332 4.1731 17.6799 3.99977ZM16.9999 10.6664C16.4532 10.6664 15.9999 11.1198 15.9999 11.6664V16.5731C15.9999 17.0398 16.2532 17.4798 16.6532 17.7198L20.8132 20.1864C21.2932 20.4664 21.9065 20.3064 22.1865 19.8398C22.4665 19.3598 22.3065 18.7464 21.8399 18.4664L17.9999 16.1864V11.6531C17.9999 11.1198 17.5465 10.6664 16.9999 10.6664Z" fill="#A0A0A0"/>
</svg>
